<svg width="422" height="92" viewBox="0 0 422 92" fill="none" xmlns="http://www.w3.org/2000/svg">
<path d="M70.8883 60.344C70.8883 59.48 70.8163 58.64 70.6723 57.824L69.0883 57.68C68.2243 59.456 67.3603 61.016 66.4963 62.36C65.6803 63.704 64.7203 64.832 63.6163 65.744C62.5123 66.608 61.2163 67.256 59.7283 67.688C58.2883 68.12 56.5363 68.336 54.4723 68.336C50.8723 68.336 47.5603 67.592 44.5363 66.104C41.5603 64.616 38.9683 62.624 36.7603 60.128C34.5523 57.632 32.8243 54.776 31.5763 51.56C30.3763 48.344 29.7763 45.008 29.7763 41.552C29.7763 38.24 30.2803 35.24 31.2883 32.552C32.3443 29.816 33.8083 27.512 35.6803 25.64C37.6003 23.72 39.8803 22.232 42.5203 21.176C45.2083 20.12 48.2083 19.592 51.5203 19.592C53.5363 19.592 55.4323 19.856 57.2083 20.384C58.9843 20.912 60.5683 21.704 61.9603 22.76C63.3523 23.816 64.5283 25.136 65.4883 26.72C66.4483 28.256 67.0963 30.056 67.4323 32.12C67.5283 32.504 67.7923 32.696 68.2243 32.696C68.7043 32.696 68.9923 32.504 69.0883 32.12C69.4723 29.96 69.7843 27.8 70.0243 25.64C70.2643 23.432 70.4083 21.224 70.4563 19.016C70.4563 18.584 70.2163 18.368 69.7363 18.368C68.5363 18.272 67.3123 18.152 66.0643 18.008C64.8163 17.816 63.5683 17.624 62.3203 17.432C60.6403 17.192 58.9363 16.976 57.2083 16.784C55.4803 16.544 53.7283 16.424 51.9523 16.424C50.4163 16.424 48.6883 16.52 46.7683 16.712C44.8963 16.904 43.0243 17.24 41.1523 17.72C39.2803 18.2 37.5043 18.824 35.8243 19.592C34.1443 20.36 32.7523 21.32 31.6483 22.472C28.6723 25.496 26.3683 28.976 24.7363 32.912C23.1523 36.8 22.3603 40.856 22.3603 45.08C22.3603 49.016 23.0323 52.616 24.3763 55.88C25.7683 59.096 27.6643 61.88 30.0643 64.232C32.4643 66.536 35.3203 68.336 38.6323 69.632C41.9923 70.88 45.6403 71.504 49.5763 71.504C52.6963 71.504 55.7683 71.336 58.7923 71C61.8643 70.712 64.9123 70.328 67.9363 69.848C68.2243 69.848 68.4403 69.728 68.5843 69.488C69.3043 68.192 69.8563 66.704 70.2403 65.024C70.6723 63.344 70.8883 61.784 70.8883 60.344ZM128.026 70.784L127.594 69.56C125.77 69.848 123.97 69.536 122.194 68.624C120.418 67.664 118.666 66.392 116.938 64.808C115.258 63.176 113.626 61.352 112.042 59.336C110.506 57.272 109.018 55.28 107.578 53.36C106.714 52.208 105.85 51.056 104.986 49.904C104.17 48.752 103.378 47.768 102.61 46.952C103.666 45.944 104.674 44.84 105.634 43.64C106.642 42.392 107.53 41.072 108.298 39.68C109.066 38.288 109.69 36.872 110.17 35.432C110.65 33.944 110.89 32.456 110.89 30.968C110.89 30.632 110.866 30.272 110.818 29.888C110.818 29.504 110.77 29.192 110.674 28.952C110.098 26.552 109.21 24.632 108.01 23.192C106.81 21.704 105.37 20.576 103.69 19.808C102.058 18.992 100.258 18.464 98.2905 18.224C96.3705 17.936 94.4025 17.792 92.3865 17.792H88.5705C88.1385 17.792 87.7065 17.816 87.2745 17.864C86.8905 17.864 86.4825 17.864 86.0505 17.864C85.2825 17.864 84.5385 17.888 83.8185 17.936C83.0985 17.936 82.3305 17.912 81.5145 17.864H76.7625H75.4665C75.1305 17.864 74.8905 17.96 74.7465 18.152C74.6025 18.296 74.6025 18.488 74.7465 18.728C74.8905 19.208 75.2025 19.52 75.6825 19.664C76.1625 19.808 76.7385 19.904 77.4105 19.952C77.7465 20 78.0825 20.072 78.4185 20.168C78.7545 20.216 79.0665 20.36 79.3545 20.6C79.6425 20.792 79.8825 21.128 80.0745 21.608C80.2665 22.088 80.3625 22.736 80.3625 23.552V63.44C80.3625 64.592 80.3385 65.552 80.2905 66.32C80.2425 67.04 80.0745 67.616 79.7865 68.048C79.5465 68.48 79.1385 68.816 78.5625 69.056C77.9865 69.296 77.1705 69.512 76.1145 69.704C75.6345 69.8 75.3945 70.04 75.3945 70.424C75.4425 70.76 75.7065 70.952 76.1865 71C79.1145 71.144 82.0425 71.216 84.9705 71.216C87.8985 71.216 90.8265 71.216 93.7545 71.216C94.1385 71.216 94.4025 71.096 94.5465 70.856C94.6905 70.616 94.6185 70.376 94.3305 70.136C93.8985 69.752 93.3945 69.512 92.8185 69.416C92.2905 69.32 91.7625 69.248 91.2345 69.2C90.9945 69.152 90.6585 69.104 90.2265 69.056C89.8425 69.008 89.5305 68.936 89.2905 68.84C89.1465 68.744 89.0025 68.432 88.8585 67.904C88.7145 67.376 88.5705 66.8 88.4265 66.176C88.2825 65.504 88.1625 64.88 88.0665 64.304C88.0185 63.728 87.9945 63.32 87.9945 63.08V49.688C88.3785 49.64 88.7865 49.616 89.2185 49.616C89.6985 49.616 90.1305 49.616 90.5145 49.616C91.5225 49.616 92.6505 49.712 93.8985 49.904C95.1945 50.096 96.2745 50.576 97.1385 51.344C98.2905 52.352 99.3945 53.6 100.45 55.088C101.554 56.528 102.658 58.016 103.762 59.552C104.866 61.136 105.994 62.696 107.146 64.232C108.346 65.768 109.618 67.16 110.962 68.408C112.354 69.608 113.842 70.568 115.426 71.288C117.058 72.056 118.882 72.44 120.898 72.44C122.146 72.44 123.37 72.296 124.57 72.008C125.77 71.72 126.922 71.312 128.026 70.784ZM103.042 34.64C103.042 35.504 102.97 36.392 102.826 37.304C102.73 38.216 102.538 39.104 102.25 39.968C101.962 40.832 101.578 41.648 101.098 42.416C100.666 43.136 100.114 43.76 99.4425 44.288C98.7705 44.816 97.9065 45.128 96.8505 45.224C95.7945 45.32 94.8585 45.368 94.0425 45.368C91.9785 45.368 89.9865 45.224 88.0665 44.936V21.248C89.3625 20.816 90.7065 20.6 92.0985 20.6C93.9225 20.6 95.5065 21.032 96.8505 21.896C98.2425 22.712 99.3945 23.792 100.306 25.136C101.218 26.432 101.89 27.92 102.322 29.6C102.802 31.28 103.042 32.96 103.042 34.64ZM160.365 61.568C160.413 61.376 160.341 61.232 160.149 61.136C160.005 60.992 159.837 60.92 159.645 60.92C159.453 60.872 159.261 60.872 159.069 60.92C158.877 60.968 158.757 61.088 158.709 61.28C158.181 63.44 157.149 65.072 155.613 66.176C154.125 67.28 152.349 67.832 150.285 67.832C148.701 67.832 147.045 67.52 145.317 66.896C143.637 66.224 142.365 65.144 141.501 63.656V44.216H142.725C143.397 44.216 144.261 44.216 145.317 44.216C146.373 44.216 147.429 44.264 148.485 44.36C149.589 44.408 150.597 44.528 151.509 44.72C152.421 44.864 153.021 45.08 153.309 45.368C153.549 45.56 153.717 45.872 153.813 46.304C153.957 46.736 154.101 47.168 154.245 47.6C154.341 47.888 154.461 48.224 154.605 48.608C154.797 48.992 155.037 49.328 155.325 49.616C155.613 49.856 155.925 49.928 156.261 49.832C156.597 49.736 156.765 49.544 156.765 49.256C156.909 47.384 157.125 45.56 157.413 43.784C157.509 43.064 157.605 42.344 157.701 41.624C157.797 40.856 157.893 40.112 157.989 39.392C158.037 39.152 157.941 38.96 157.701 38.816C157.461 38.672 157.197 38.624 156.909 38.672C156.669 38.72 156.333 38.84 155.901 39.032C155.517 39.176 155.061 39.368 154.533 39.608C154.053 39.848 153.573 40.064 153.093 40.256C152.613 40.4 152.253 40.472 152.013 40.472H141.429V21.248C141.813 21.344 142.053 21.368 142.149 21.32C142.293 21.272 142.557 21.248 142.941 21.248C143.469 21.248 143.973 21.248 144.453 21.248C144.981 21.248 145.485 21.224 145.965 21.176C146.397 21.128 146.829 21.104 147.261 21.104C147.693 21.104 148.101 21.104 148.485 21.104C150.453 21.104 152.061 21.464 153.309 22.184C154.605 22.856 155.349 24.296 155.541 26.504C155.589 26.888 155.853 27.08 156.333 27.08C156.813 27.08 157.101 26.888 157.197 26.504C157.245 26.264 157.293 26.072 157.341 25.928C157.389 25.784 157.437 25.616 157.485 25.424C157.773 24.176 158.037 22.88 158.277 21.536C158.565 20.192 158.781 18.848 158.925 17.504C158.973 17.264 158.853 17.096 158.565 17C158.325 16.856 158.037 16.832 157.701 16.928C157.125 17.264 156.693 17.432 156.405 17.432H128.757C128.373 17.432 128.109 17.576 127.965 17.864C127.821 18.152 127.941 18.392 128.325 18.584C128.805 18.92 129.285 19.184 129.765 19.376C130.245 19.568 130.749 19.712 131.277 19.808C131.613 19.904 131.925 20 132.213 20.096C132.549 20.192 132.837 20.36 133.077 20.6C133.365 20.792 133.581 21.08 133.725 21.464C133.869 21.848 133.941 22.352 133.941 22.976V63.08C133.941 63.896 133.893 64.688 133.797 65.456C133.701 66.176 133.509 66.824 133.221 67.4C132.933 67.976 132.501 68.432 131.925 68.768C131.397 69.104 130.677 69.296 129.765 69.344C129.285 69.344 129.021 69.56 128.973 69.992C128.973 70.376 129.213 70.568 129.693 70.568C131.421 70.76 133.269 70.88 135.237 70.928C137.205 70.976 139.197 71 141.213 71C142.317 71 143.421 71 144.525 71C145.629 70.952 146.733 70.928 147.837 70.928H156.981L158.277 70.568C158.661 70.568 158.901 70.4 158.997 70.064L159.213 68.336C159.357 67.184 159.501 66.056 159.645 64.952C159.837 63.8 160.077 62.672 160.365 61.568ZM218.043 70.928V69.632C216.651 69.536 215.331 69.2 214.083 68.624C212.883 68.048 211.947 67.064 211.275 65.672C210.267 63.512 209.235 61.232 208.179 58.832C207.171 56.384 206.163 53.888 205.155 51.344C204.147 48.8 203.163 46.28 202.203 43.784C201.291 41.288 200.403 38.888 199.539 36.584C198.915 34.904 198.243 33.272 197.523 31.688C196.851 30.104 196.227 28.544 195.651 27.008C195.555 26.816 195.459 26.576 195.363 26.288C195.315 26 195.195 25.712 195.003 25.424C194.475 23.936 193.875 22.328 193.203 20.6C192.531 18.872 191.787 17.552 190.971 16.64C190.779 16.4 190.563 16.352 190.323 16.496C190.083 16.64 189.915 16.808 189.819 17C188.043 21.656 186.291 26.288 184.563 30.896C182.835 35.504 181.131 40.136 179.451 44.792C178.299 47.96 177.147 51.224 175.995 54.584C174.891 57.896 173.715 61.136 172.467 64.304C172.227 64.88 171.891 65.504 171.459 66.176C171.075 66.8 170.595 67.4 170.019 67.976C169.491 68.504 168.915 68.96 168.291 69.344C167.715 69.68 167.115 69.848 166.491 69.848C166.443 69.848 166.299 69.848 166.059 69.848C165.867 69.8 165.723 69.848 165.627 69.992C165.435 70.184 165.387 70.376 165.483 70.568C165.531 70.664 165.603 70.76 165.699 70.856C165.795 70.952 165.843 71 165.843 71L180.819 71.072C181.299 71.072 181.539 70.904 181.539 70.568C181.587 70.184 181.371 69.944 180.891 69.848C180.171 69.752 179.427 69.584 178.659 69.344C177.939 69.056 177.579 68.504 177.579 67.688C177.579 67.064 177.771 65.984 178.155 64.448C178.587 62.864 179.091 61.208 179.667 59.48C180.243 57.704 180.819 56 181.395 54.368C182.019 52.688 182.523 51.416 182.907 50.552H197.091C198.195 53.576 199.323 56.6 200.475 59.624C201.675 62.648 202.851 65.672 204.003 68.696L201.483 69.992C201.195 70.232 201.123 70.448 201.267 70.64C201.411 70.832 201.675 70.952 202.059 71C203.067 71.096 204.315 71.12 205.803 71.072C207.291 71.024 208.563 71 209.619 71C211.059 71 212.475 71 213.867 71C215.259 71.048 216.651 71.024 218.043 70.928ZM195.651 46.736H184.059C185.115 43.712 186.075 40.832 186.939 38.096C187.851 35.312 188.787 32.408 189.747 29.384L195.651 46.736ZM256.148 19.376V17.792C256.148 17.552 256.028 17.384 255.788 17.288C255.596 17.192 255.38 17.168 255.14 17.216C254.9 17.264 254.612 17.312 254.276 17.36C253.988 17.36 253.724 17.408 253.484 17.504C253.1 17.6 252.668 17.72 252.188 17.864C251.756 17.96 251.396 18.008 251.108 18.008H220.292C220.004 18.008 219.572 17.984 218.996 17.936C218.468 17.84 217.892 17.72 217.268 17.576C216.692 17.432 216.14 17.288 215.612 17.144C215.084 16.952 214.676 16.76 214.388 16.568C214.148 16.472 213.884 16.472 213.596 16.568C213.356 16.616 213.188 16.76 213.092 17C212.996 17.384 212.9 17.768 212.804 18.152C212.756 18.536 212.66 18.944 212.516 19.376C212.18 20.432 211.868 21.488 211.58 22.544C211.292 23.552 211.148 24.488 211.148 25.352C211.148 25.592 211.148 25.808 211.148 26C211.196 26.144 211.244 26.312 211.292 26.504C211.388 26.84 211.628 27.032 212.012 27.08C212.444 27.08 212.732 26.936 212.876 26.648C213.452 25.4 214.268 24.296 215.324 23.336C216.38 22.328 217.604 21.824 218.996 21.824H230.156V63.8C230.156 64.952 230.108 65.864 230.012 66.536C229.964 67.208 229.796 67.76 229.508 68.192C229.22 68.624 228.788 68.96 228.212 69.2C227.636 69.392 226.844 69.584 225.836 69.776C225.356 69.872 225.14 70.088 225.188 70.424C225.236 70.76 225.5 70.952 225.98 71C228.908 71.096 231.812 71.12 234.692 71.072C237.62 71.024 240.548 71 243.476 71C243.812 71 244.052 70.928 244.196 70.784C244.34 70.592 244.34 70.376 244.196 70.136C243.956 69.656 243.596 69.368 243.116 69.272C242.636 69.176 242.06 69.104 241.388 69.056C240.956 69.008 240.5 68.936 240.02 68.84C239.54 68.744 239.06 68.456 238.58 67.976C238.532 67.928 238.46 67.664 238.364 67.184C238.268 66.704 238.172 66.176 238.076 65.6C238.028 65.024 237.956 64.472 237.86 63.944C237.812 63.368 237.788 63.008 237.788 62.864V21.968C238.124 22.016 238.484 22.04 238.868 22.04C239.3 22.04 239.708 22.04 240.092 22.04C240.476 22.04 240.932 22.04 241.46 22.04C242.036 21.992 242.54 21.944 242.972 21.896C243.452 21.848 243.908 21.824 244.34 21.824C244.772 21.776 245.252 21.752 245.78 21.752C247.796 21.752 249.5 22.112 250.892 22.832C252.332 23.552 253.268 25.016 253.7 27.224C253.796 27.56 254.06 27.728 254.492 27.728C254.972 27.728 255.26 27.56 255.356 27.224C255.644 25.976 255.836 24.704 255.932 23.408C256.076 22.064 256.148 20.72 256.148 19.376ZM315.964 45.872C315.964 42.368 315.412 38.84 314.308 35.288C313.252 31.688 311.62 28.448 309.412 25.568C307.204 22.688 304.42 20.336 301.06 18.512C297.7 16.688 293.764 15.776 289.252 15.776C288.58 15.776 287.86 15.824 287.092 15.92C286.372 15.968 285.676 16.064 285.004 16.208C280.492 17.168 276.652 18.464 273.484 20.096C270.316 21.68 267.724 23.672 265.708 26.072C263.692 28.472 262.228 31.304 261.316 34.568C260.404 37.832 259.948 41.576 259.948 45.8C259.948 47.912 260.332 50.024 261.1 52.136C261.868 54.248 262.9 56.288 264.196 58.256C265.492 60.176 267.004 61.976 268.732 63.656C270.508 65.336 272.38 66.8 274.348 68.048C276.316 69.248 278.356 70.208 280.468 70.928C282.58 71.648 284.62 72.008 286.588 72.008C286.876 72.008 287.236 72.008 287.668 72.008C288.148 72.008 288.604 71.984 289.036 71.936C289.516 71.936 289.948 71.912 290.332 71.864C290.764 71.816 291.124 71.768 291.412 71.72C294.772 70.952 297.94 69.872 300.916 68.48C303.892 67.088 306.484 65.336 308.692 63.224C310.948 61.112 312.724 58.616 314.02 55.736C315.316 52.856 315.964 49.568 315.964 45.872ZM308.692 45.728C308.692 48.752 308.26 51.656 307.396 54.44C306.532 57.176 305.26 59.576 303.58 61.64C301.948 63.704 299.908 65.36 297.46 66.608C295.012 67.808 292.18 68.408 288.964 68.408C285.556 68.408 282.508 67.64 279.82 66.104C277.18 64.52 274.948 62.48 273.124 59.984C271.3 57.488 269.908 54.68 268.948 51.56C268.036 48.44 267.58 45.32 267.58 42.2C267.58 39.128 268.012 36.248 268.876 33.56C269.788 30.824 271.084 28.448 272.764 26.432C274.492 24.368 276.58 22.76 279.028 21.608C281.524 20.408 284.38 19.808 287.596 19.808C291.004 19.808 294.004 20.576 296.596 22.112C299.236 23.648 301.444 25.64 303.22 28.088C305.044 30.536 306.412 33.32 307.324 36.44C308.236 39.512 308.692 42.608 308.692 45.728ZM371.519 70.784L371.087 69.56C369.263 69.848 367.463 69.536 365.687 68.624C363.911 67.664 362.159 66.392 360.431 64.808C358.751 63.176 357.119 61.352 355.535 59.336C353.999 57.272 352.511 55.28 351.071 53.36C350.207 52.208 349.343 51.056 348.479 49.904C347.663 48.752 346.871 47.768 346.103 46.952C347.159 45.944 348.167 44.84 349.127 43.64C350.135 42.392 351.023 41.072 351.791 39.68C352.559 38.288 353.183 36.872 353.663 35.432C354.143 33.944 354.383 32.456 354.383 30.968C354.383 30.632 354.359 30.272 354.311 29.888C354.311 29.504 354.263 29.192 354.167 28.952C353.591 26.552 352.703 24.632 351.503 23.192C350.303 21.704 348.863 20.576 347.183 19.808C345.551 18.992 343.751 18.464 341.783 18.224C339.863 17.936 337.895 17.792 335.879 17.792H332.063C331.631 17.792 331.199 17.816 330.767 17.864C330.383 17.864 329.975 17.864 329.543 17.864C328.775 17.864 328.031 17.888 327.311 17.936C326.591 17.936 325.823 17.912 325.007 17.864H320.255H318.959C318.623 17.864 318.383 17.96 318.239 18.152C318.095 18.296 318.095 18.488 318.239 18.728C318.383 19.208 318.695 19.52 319.175 19.664C319.655 19.808 320.231 19.904 320.903 19.952C321.239 20 321.575 20.072 321.911 20.168C322.247 20.216 322.559 20.36 322.847 20.6C323.135 20.792 323.375 21.128 323.567 21.608C323.759 22.088 323.855 22.736 323.855 23.552V63.44C323.855 64.592 323.831 65.552 323.783 66.32C323.735 67.04 323.567 67.616 323.279 68.048C323.039 68.48 322.631 68.816 322.055 69.056C321.479 69.296 320.663 69.512 319.607 69.704C319.127 69.8 318.887 70.04 318.887 70.424C318.935 70.76 319.199 70.952 319.679 71C322.607 71.144 325.535 71.216 328.463 71.216C331.391 71.216 334.319 71.216 337.247 71.216C337.631 71.216 337.895 71.096 338.039 70.856C338.183 70.616 338.111 70.376 337.823 70.136C337.391 69.752 336.887 69.512 336.311 69.416C335.783 69.32 335.255 69.248 334.727 69.2C334.487 69.152 334.151 69.104 333.719 69.056C333.335 69.008 333.023 68.936 332.783 68.84C332.639 68.744 332.495 68.432 332.351 67.904C332.207 67.376 332.063 66.8 331.919 66.176C331.775 65.504 331.655 64.88 331.559 64.304C331.511 63.728 331.487 63.32 331.487 63.08V49.688C331.871 49.64 332.279 49.616 332.711 49.616C333.191 49.616 333.623 49.616 334.007 49.616C335.015 49.616 336.143 49.712 337.391 49.904C338.687 50.096 339.767 50.576 340.631 51.344C341.783 52.352 342.887 53.6 343.943 55.088C345.047 56.528 346.151 58.016 347.255 59.552C348.359 61.136 349.487 62.696 350.639 64.232C351.839 65.768 353.111 67.16 354.455 68.408C355.847 69.608 357.335 70.568 358.919 71.288C360.551 72.056 362.375 72.44 364.391 72.44C365.639 72.44 366.863 72.296 368.063 72.008C369.263 71.72 370.415 71.312 371.519 70.784ZM346.535 34.64C346.535 35.504 346.463 36.392 346.319 37.304C346.223 38.216 346.031 39.104 345.743 39.968C345.455 40.832 345.071 41.648 344.591 42.416C344.159 43.136 343.607 43.76 342.935 44.288C342.263 44.816 341.399 45.128 340.343 45.224C339.287 45.32 338.351 45.368 337.535 45.368C335.471 45.368 333.479 45.224 331.559 44.936V21.248C332.855 20.816 334.199 20.6 335.591 20.6C337.415 20.6 338.999 21.032 340.343 21.896C341.735 22.712 342.887 23.792 343.799 25.136C344.711 26.432 345.383 27.92 345.815 29.6C346.295 31.28 346.535 32.96 346.535 34.64ZM399.897 56.672C399.897 54.944 399.561 53.336 398.889 51.848C398.265 50.36 397.425 48.968 396.369 47.672C395.313 46.328 394.113 45.056 392.769 43.856C391.425 42.656 390.057 41.48 388.665 40.328C387.513 39.32 386.361 38.336 385.209 37.376C384.105 36.416 383.097 35.432 382.185 34.424C381.321 33.368 380.625 32.288 380.097 31.184C379.569 30.08 379.305 28.904 379.305 27.656C379.305 26.456 379.521 25.376 379.953 24.416C380.385 23.408 380.961 22.544 381.681 21.824C382.449 21.104 383.313 20.552 384.273 20.168C385.281 19.784 386.337 19.592 387.441 19.592C388.593 19.592 389.649 19.784 390.609 20.168C391.617 20.504 392.505 21.008 393.273 21.68C394.041 22.352 394.617 23.168 395.001 24.128C395.433 25.088 395.649 26.168 395.649 27.368C395.649 27.704 395.841 27.92 396.225 28.016C396.609 28.112 396.921 28.04 397.161 27.8C397.833 26.888 398.217 25.76 398.313 24.416C398.409 23.024 398.457 21.68 398.457 20.384V17.792C398.457 17.456 398.265 17.24 397.881 17.144C395.673 16.52 393.297 16.208 390.753 16.208C388.929 16.208 386.937 16.448 384.777 16.928C382.617 17.408 380.601 18.176 378.729 19.232C376.857 20.24 375.273 21.536 373.977 23.12C372.729 24.704 372.105 26.6 372.105 28.808C372.105 30.296 372.417 31.76 373.041 33.2C373.713 34.592 374.577 35.984 375.633 37.376C376.689 38.768 377.889 40.136 379.233 41.48C380.625 42.824 382.017 44.168 383.409 45.512V45.44C384.657 46.688 385.881 47.912 387.081 49.112C388.281 50.312 389.337 51.512 390.249 52.712C391.209 53.864 391.977 55.04 392.553 56.24C393.129 57.44 393.417 58.64 393.417 59.84C393.417 61.088 393.105 62.216 392.481 63.224C391.905 64.232 391.137 65.096 390.177 65.816C389.265 66.536 388.233 67.088 387.081 67.472C385.929 67.856 384.801 68.048 383.697 68.048C382.449 68.048 381.249 67.856 380.097 67.472C378.945 67.088 377.913 66.536 377.001 65.816C376.089 65.096 375.369 64.232 374.841 63.224C374.361 62.168 374.169 60.992 374.265 59.696L374.337 58.544C374.337 58.352 374.265 58.208 374.121 58.112C373.977 58.016 373.785 57.968 373.545 57.968C373.353 57.968 373.161 58.016 372.969 58.112C372.825 58.16 372.729 58.28 372.681 58.472C372.585 58.856 372.489 59.288 372.393 59.768C372.297 60.2 372.201 60.68 372.105 61.208C371.913 61.88 371.745 62.552 371.601 63.224C371.457 63.896 371.385 64.616 371.385 65.384C371.385 66.632 371.673 67.688 372.249 68.552C372.873 69.416 373.641 70.112 374.553 70.64C375.465 71.12 376.473 71.456 377.577 71.648C378.681 71.888 379.737 72.008 380.745 72.008C382.809 72.008 384.969 71.648 387.225 70.928C389.481 70.16 391.545 69.104 393.417 67.76C395.289 66.416 396.825 64.808 398.025 62.936C399.273 61.064 399.897 58.976 399.897 56.672Z" fill="#111111"/>
<path d="M420.939 39.0055C418.204 39.2721 412.507 42.0043 410 43.3371C414.376 42.0043 417.52 49.2237 418.546 53C420.483 48.2241 423.673 38.7389 420.939 39.0055Z" fill="#111111"/>
<path d="M10.9388 39.0055C8.20409 39.2721 2.50681 42.0043 0 43.3371C4.37552 42.0043 7.52042 49.2237 8.54593 53C10.483 48.2241 13.6735 38.7389 10.9388 39.0055Z" fill="#111111"/>
</svg>
